<?xml version="1.0" encoding="UTF-8" standalone="no"?>
<!-- Created with Inkscape (http://www.inkscape.org/) -->

<svg
   width="200mm"
   height="85mm"
   viewBox="0 0 200 85"
   version="1.1"
   id="svg1"
   xml:space="preserve"
   sodipodi:docname="logo.svg"
   inkscape:version="1.4.4 (dcaf3e7d9e, 2026-05-05)"
   xmlns:inkscape="http://www.inkscape.org/namespaces/inkscape"
   xmlns:sodipodi="http://sodipodi.sourceforge.net/DTD/sodipodi-0.dtd"
   xmlns="http://www.w3.org/2000/svg"
   xmlns:svg="http://www.w3.org/2000/svg"><sodipodi:namedview
     id="namedview1"
     pagecolor="#ffffff"
     bordercolor="#000000"
     borderopacity="0.25"
     inkscape:showpageshadow="2"
     inkscape:pageopacity="0.0"
     inkscape:pagecheckerboard="0"
     inkscape:deskcolor="#d1d1d1"
     inkscape:document-units="mm"
     inkscape:zoom="1.4142136"
     inkscape:cx="211.42492"
     inkscape:cy="124.45079"
     inkscape:window-width="2560"
     inkscape:window-height="1403"
     inkscape:window-x="0"
     inkscape:window-y="0"
     inkscape:window-maximized="1"
     inkscape:current-layer="layer1"
     showgrid="true" /><defs
     id="defs1"><inkscape:path-effect
   effect="mirror_symmetry"
   start_point="196.33623,88.875554"
   end_point="196.33623,134.86145"
   center_point="196.33623,111.8685"
   id="path-effect11"
   is_visible="true"
   lpeversion="1.2"
   lpesatellites=""
   mode="free"
   discard_orig_path="false"
   fuse_paths="false"
   oposite_fuse="true"
   split_items="false"
   split_open="false"
   link_styles="false" /><inkscape:path-effect
   effect="mirror_symmetry"
   start_point="286.93125,88.875559"
   end_point="286.93125,134.86145"
   center_point="286.93125,111.8685"
   id="path-effect8"
   is_visible="true"
   lpeversion="1.2"
   lpesatellites=""
   mode="X"
   discard_orig_path="false"
   fuse_paths="false"
   oposite_fuse="false"
   split_items="false"
   split_open="false"
   link_styles="false" /><inkscape:path-effect
   effect="mirror_symmetry"
   start_point="194.24,88.875559"
   end_point="196.33623,134.86145"
   center_point="195.28812,111.8685"
   id="path-effect7"
   is_visible="true"
   lpeversion="1.2"
   lpesatellites=""
   mode="free"
   discard_orig_path="false"
   fuse_paths="false"
   oposite_fuse="false"
   split_items="false"
   split_open="false"
   link_styles="false" />
		
		
		
	
		
		
		
	</defs><g
     inkscape:label="Layer 1"
     inkscape:groupmode="layer"
     id="layer1"
     inkscape:export-filename="Vzdušný skauting logo_HQ.png"
     inkscape:export-xdpi="300"
     inkscape:export-ydpi="300"
     style="display:inline;stroke-width:1.00005"
     transform="matrix(0.99995149,0,0,0.99995345,-10.366596,0.48914775)"><g
       id="g14"
       inkscape:label="Main group"
       style="display:inline;fill:#00b5e2;fill-opacity:1;stroke:#002855;stroke-width:7.56157;stroke-linecap:butt;stroke-linejoin:miter;stroke-dasharray:none;stroke-dashoffset:0;stroke-opacity:1;paint-order:markers stroke fill"
       transform="matrix(1.0592963,0,0,1.0567691,-0.8541614,-113.26544)"><g
         id="g5"
         inkscape:label="Right Wing"
         inkscape:path-effect="#path-effect8"
         transform="translate(-181.93125,31.941826)"
         style="opacity:1;fill:#00b5e2;fill-opacity:1;stroke:#002855;stroke-width:7.56157;stroke-linecap:butt;stroke-linejoin:round;stroke-dasharray:none;stroke-dashoffset:0;stroke-opacity:1;paint-order:markers stroke fill"><path
           style="fill:#00b5e2;fill-opacity:1;stroke:#002855;stroke-width:7.56157;stroke-linecap:butt;stroke-linejoin:round;stroke-dasharray:none;stroke-dashoffset:0;stroke-opacity:1;paint-order:markers stroke fill"
           d="m 263.35124,124.94046 -36.50715,-6.93211 c -5.92699,-0.20802 1.3623,7.96002 7.55305,9.45589 24.30683,5.62157 27.13376,6.65741 41.99347,7.39721 z m 47.16002,0 36.50715,-6.93211 c 5.92699,-0.20802 -1.3623,7.96002 -7.55305,9.45589 -24.30683,5.62157 -27.13376,6.65741 -41.99347,7.39721 z"
           id="path2-0-4-5"
           sodipodi:nodetypes="ccccc"
           inkscape:label="Right wing lower"
           inkscape:original-d="m 263.35124,124.94046 -36.50715,-6.93211 c -5.92699,-0.20802 1.3623,7.96002 7.55305,9.45589 24.30683,5.62157 27.13376,6.65741 41.99347,7.39721 z" /><path
           style="fill:#00b5e2;fill-opacity:1;stroke:#002855;stroke-width:7.56157;stroke-linecap:butt;stroke-linejoin:round;stroke-dasharray:none;stroke-dashoffset:0;stroke-opacity:1;paint-order:markers stroke fill"
           d="m 270.07313,112.02409 -57.61575,-8.50167 c -5.92699,-0.20802 0.65259,7.39025 6.84334,8.88612 18.11508,3.81211 32.47408,5.55943 50.07827,8.54166 z m 33.71624,0 57.61575,-8.50167 c 5.92699,-0.20802 -0.65259,7.39025 -6.84334,8.88612 -18.11508,3.81211 -32.47408,5.55943 -50.07827,8.54166 z"
           id="path2-0-4"
           sodipodi:nodetypes="ccccc"
           inkscape:label="Right wing middle"
           inkscape:original-d="m 270.07313,112.02409 -57.61575,-8.50167 c -5.92699,-0.20802 0.65259,7.39025 6.84334,8.88612 18.11508,3.81211 32.47408,5.55943 50.07827,8.54166 z" /><path
           style="fill:#00b5e2;fill-opacity:1;stroke:#002855;stroke-width:7.56157;stroke-linecap:butt;stroke-linejoin:round;stroke-dasharray:none;stroke-dashoffset:0;stroke-opacity:1;paint-order:markers stroke fill"
           d="M 277.35994,98.659387 198.6568,88.87975 c -5.92699,-0.20802 0.65259,7.39025 6.84334,8.88612 6.86249,2.42674 56.25391,8.44611 68.31544,10.10035 z m 19.14262,0 78.70314,-9.779637 c 5.92699,-0.20802 -0.65259,7.39025 -6.84334,8.88612 -6.86249,2.42674 -56.25391,8.44611 -68.31544,10.10035 z"
           id="path2-0"
           sodipodi:nodetypes="ccccc"
           inkscape:label="RIght wing upper"
           inkscape:original-d="M 277.35994,98.659387 198.6568,88.87975 c -5.92699,-0.20802 0.65259,7.39025 6.84334,8.88612 6.86249,2.42674 56.25391,8.44611 68.31544,10.10035 z" /></g><ellipse
         style="display:inline;opacity:0;fill:#00b5e2;fill-opacity:1;stroke:#002855;stroke-width:7.56868;stroke-linecap:butt;stroke-linejoin:miter;stroke-dasharray:none;stroke-dashoffset:0;stroke-opacity:1;paint-order:markers stroke fill"
         id="path1"
         cx="105"
         cy="150.6781"
         inkscape:label="Upper CIrcle"
         rx="28.624666"
         ry="28.68611"
         sodipodi:insensitive="true" /><circle
         style="display:inline;opacity:1;fill:#004b87;fill-opacity:1;stroke:#002855;stroke-width:7.93011;stroke-linecap:butt;stroke-linejoin:miter;stroke-dasharray:none;stroke-dashoffset:0;stroke-opacity:1;paint-order:markers stroke fill"
         id="circle32"
         cx="105"
         cy="148.5"
         inkscape:label="Upper CIrcle"
         r="30.023731" /></g><g
       id="g8"
       transform="matrix(0.65378712,0,0,0.65222736,21.358829,-2.5436867)"
       inkscape:label="Scout icon "
       style="display:inline;opacity:1;stroke-width:0.945196">
	<path
   class="st0"
   d="m 177.6,50.8 c -5.9,0 -11.4,2.1 -15.8,5.6 0,-0.7 0,-1.4 0,-2 0,-19.5 -8.6,-37.9 -23.6,-50.5 -1.2,-1 -3.1,-1 -4.3,0 -15,12.6 -23.6,31 -23.6,50.5 0,0.7 0,1.4 0,2 -4.4,-3.6 -9.9,-5.6 -15.8,-5.6 -13.8,0 -25.1,11.3 -25.1,25.2 0,8 3.9,15.6 10.4,20.4 0.6,0.5 1.7,1.2 3.1,2.2 0.7,0.5 1.7,0.7 2.6,0.6 0.9,-0.2 1.7,-0.7 2.2,-1.4 1.6,-2.3 4.2,-3.7 7,-3.7 4.6,0 8.4,3.8 8.4,8.4 0,1.9 -0.6,3.7 -1.8,5.2 -0.6,0.7 -0.8,1.6 -0.7,2.5 0.1,0.9 0.6,1.7 1.3,2.3 1.4,1 2.4,1.7 2.8,2.1 2.6,2 5.8,3.1 9.1,3.1 2.1,0 4.1,-0.4 6,-1.2 l 9.8,13.5 c 1.6,2.1 4,3.4 6.6,3.4 v 0 c 2.6,0 5,-1.2 6.6,-3.4 l 9.8,-13.5 c 1.8,0.8 3.8,1.2 5.9,1.2 3.3,0 6.5,-1.1 9.1,-3.1 0.5,-0.3 1.4,-1.1 2.8,-2.1 0.7,-0.5 1.2,-1.4 1.3,-2.3 0.1,-0.9 -0.1,-1.8 -0.7,-2.5 -1.2,-1.5 -1.8,-3.3 -1.8,-5.2 0,-4.6 3.8,-8.4 8.4,-8.4 2.8,0 5.4,1.4 7,3.7 0.5,0.8 1.3,1.3 2.2,1.4 0.9,0.2 1.8,0 2.6,-0.6 1.4,-1 2.5,-1.8 3.1,-2.2 C 199,91.7 202.9,84.1 202.9,76 202.8,62.1 191.5,50.8 177.6,50.8 Z M 136.1,10.9 c 12.1,11.2 19,26.9 19,43.5 0,4.5 -0.5,9 -1.5,13.3 -0.8,-0.8 -1.6,-1.5 -2.5,-2.1 -4.4,-3.3 -9.6,-5 -15,-5 -5.5,0 -10.7,1.7 -15,5 -0.9,0.7 -1.7,1.4 -2.5,2.1 -1,-4.3 -1.5,-8.8 -1.5,-13.3 0,-16.6 6.9,-32.3 19,-43.5 z M 76.1,76 c 0,-10.2 8.3,-18.5 18.5,-18.5 8.1,0 15.2,5.3 17.7,13.2 0.2,0.6 0.6,2 1.3,3.9 -3.1,-1.3 -6.4,-2 -9.8,-2 -6,0 -11.8,2.1 -16.3,6 -3,2.6 -5.4,5.8 -6.9,9.5 C 77.7,84.7 76.1,80.4 76.1,76 Z m 37.5,6.1 c 2,1.2 3.5,3.1 4.2,5.4 1.6,4.8 3.1,9.4 3.9,12 v 0 c 0.3,1 0.5,2 0.5,2.9 0,4.6 -3.8,8.4 -8.4,8.4 -1.8,0 -3.6,-0.6 -5.1,-1.7 -0.1,-0.1 -0.3,-0.2 -0.4,-0.3 0.9,-2 1.4,-4.2 1.4,-6.4 0,-8.3 -6.8,-15.1 -15.1,-15.1 -2.5,0 -5,0.6 -7.1,1.8 1.1,-2 2.5,-3.9 4.3,-5.4 3.3,-2.8 7.6,-4.4 12,-4.4 3.4,-0.1 6.8,0.9 9.8,2.8 z m 23.7,43.7 c -0.4,0.5 -0.9,0.6 -1.2,0.6 -0.3,0 -0.8,-0.1 -1.2,-0.6 l -9.8,-13.5 c 2.4,-2.7 3.7,-6.3 3.7,-10 0,-1.7 -0.3,-3.4 -0.9,-5 l -6.1,-19.2 c -0.6,-1.9 -0.1,-4 1.3,-5.4 0.6,-0.7 1.3,-1.3 2.1,-1.8 3.2,-2.4 7,-3.7 11,-3.7 4,0 7.8,1.3 11,3.7 0.7,0.6 1.4,1.2 2.1,1.8 1.4,1.4 1.9,3.5 1.3,5.4 l -6.2,19.2 c -0.6,1.6 -0.9,3.3 -0.9,5 0,3.7 1.4,7.2 3.7,10 z m 21.4,-43.7 c 2.9,-1.8 6.3,-2.8 9.8,-2.8 7,0 13.2,3.9 16.3,9.8 -2.2,-1.2 -4.6,-1.8 -7.2,-1.8 -8.3,0 -15.1,6.8 -15.1,15.1 0,2.2 0.5,4.4 1.4,6.4 -0.2,0.1 -0.3,0.2 -0.4,0.3 -1.5,1.1 -3.2,1.7 -5.1,1.7 -4.6,0 -8.4,-3.8 -8.4,-8.4 0,-0.9 0.2,-1.9 0.5,-2.9 0.9,-2.6 2.4,-7.2 3.9,-12 0.8,-2.3 2.3,-4.2 4.3,-5.4 z m 33,5.9 c -1.5,-3.6 -3.9,-6.9 -6.9,-9.4 -4.5,-3.9 -10.3,-6 -16.3,-6 -3.4,0 -6.7,0.7 -9.8,2 0.6,-1.9 1.1,-3.3 1.3,-3.9 2.5,-7.9 9.6,-13.2 17.7,-13.2 10.2,0 18.5,8.3 18.5,18.5 -0.1,4.4 -1.7,8.7 -4.5,12 z"
   id="path1-4"
   style="fill:#002855;fill-opacity:1;stroke-width:0.945196"
   inkscape:label="Scout Icon outline" />
	<g
   id="g4"
   style="stroke-width:0.945196">
		<path
   class="st1"
   d="m 113.6,82.1 c 2,1.2 3.5,3.1 4.2,5.4 1.6,4.8 3.1,9.4 3.9,12 v 0 c 0.3,1 0.5,2 0.5,2.9 0,4.6 -3.8,8.4 -8.4,8.4 -1.8,0 -3.6,-0.6 -5.1,-1.7 -0.1,-0.1 -0.3,-0.2 -0.4,-0.3 0.9,-2 1.4,-4.2 1.4,-6.4 0,-8.3 -6.8,-15.1 -15.1,-15.1 -2.5,0 -5,0.6 -7.1,1.8 1.1,-2 2.5,-3.9 4.3,-5.4 3.3,-2.8 7.6,-4.4 12,-4.4 3.4,-0.1 6.8,0.9 9.8,2.8 z"
   id="path2"
   style="fill:#f2a900;fill-opacity:1;stroke-width:0.945196" />
		<path
   class="st1"
   d="m 137.3,125.8 c -0.4,0.5 -0.9,0.6 -1.2,0.6 -0.3,0 -0.8,-0.1 -1.2,-0.6 l -9.8,-13.5 c 2.4,-2.7 3.7,-6.3 3.7,-10 0,-1.7 -0.3,-3.4 -0.9,-5 l -6.1,-19.2 c -0.6,-1.9 -0.1,-4 1.3,-5.4 0.6,-0.7 1.3,-1.3 2.1,-1.8 3.2,-2.4 7,-3.7 11,-3.7 4,0 7.8,1.3 11,3.7 0.7,0.6 1.4,1.2 2.1,1.8 1.4,1.4 1.9,3.5 1.3,5.4 l -6.2,19.2 c -0.6,1.6 -0.9,3.3 -0.9,5 0,3.7 1.4,7.2 3.7,10 z"
   id="path3"
   style="fill:#f2a900;fill-opacity:1;stroke-width:0.945196" />
		<path
   class="st1"
   d="m 158.7,82.1 c 2.9,-1.8 6.3,-2.8 9.8,-2.8 7,0 13.2,3.9 16.3,9.8 -2.2,-1.2 -4.6,-1.8 -7.2,-1.8 -8.3,0 -15.1,6.8 -15.1,15.1 0,2.2 0.5,4.4 1.4,6.4 -0.2,0.1 -0.3,0.2 -0.4,0.3 -1.5,1.1 -3.2,1.7 -5.1,1.7 -4.6,0 -8.4,-3.8 -8.4,-8.4 0,-0.9 0.2,-1.9 0.5,-2.9 0.9,-2.6 2.4,-7.2 3.9,-12 0.8,-2.3 2.3,-4.2 4.3,-5.4 z"
   id="path4"
   style="fill:#f2a900;fill-opacity:1;stroke-width:0.945196" />
	</g>
	<g
   id="g7"
   style="stroke-width:0.945196">
		<path
   class="st2"
   d="m 136.1,10.9 c 12.1,11.2 19,26.9 19,43.5 0,4.5 -0.5,9 -1.5,13.3 -0.8,-0.8 -1.6,-1.5 -2.5,-2.1 -4.4,-3.3 -9.6,-5 -15,-5 -5.5,0 -10.7,1.7 -15,5 -0.9,0.7 -1.7,1.4 -2.5,2.1 -1,-4.3 -1.5,-8.8 -1.5,-13.3 0,-16.6 6.9,-32.3 19,-43.5 z"
   id="path5"
   style="fill:#00b5e2;fill-opacity:1;stroke-width:0.945196" />
		<path
   class="st2"
   d="m 76.1,76 c 0,-10.2 8.3,-18.5 18.5,-18.5 8.1,0 15.2,5.3 17.7,13.2 0.2,0.6 0.6,2 1.3,3.9 -3.1,-1.3 -6.4,-2 -9.8,-2 -6,0 -11.8,2.1 -16.3,6 -3,2.6 -5.4,5.8 -6.9,9.5 C 77.7,84.7 76.1,80.4 76.1,76 Z"
   id="path6"
   style="fill:#00b5e2;fill-opacity:1;stroke-width:0.945196" />
		<path
   class="st2"
   d="m 191.7,88 c -1.5,-3.6 -3.9,-6.9 -6.9,-9.4 -4.5,-3.9 -10.3,-6 -16.3,-6 -3.4,0 -6.7,0.7 -9.8,2 0.6,-1.9 1.1,-3.3 1.3,-3.9 2.5,-7.9 9.6,-13.2 17.7,-13.2 10.2,0 18.5,8.3 18.5,18.5 -0.1,4.4 -1.7,8.7 -4.5,12 z"
   id="path7"
   style="fill:#00b5e2;fill-opacity:1;stroke-width:0.945196" />
	</g>
</g></g></svg>
